<svg xmlns="http://www.w3.org/2000/svg" xmlns:xlink="http://www.w3.org/1999/xlink" width="250" height="62" preserveAspectRatio="xMidYMid meet" version="1.0" viewBox="0 0 187.5 46.5" zoomAndPan="magnify"><g fill="#fff" fill-opacity="1"><g><g><path d="M 56.453125 0 L 46.671875 0 L 28.609375 -15.90625 L 10.53125 0 L 0.84375 0 L 23.765625 -20.1875 L 0.84375 -40.375 L 10.53125 -40.375 L 28.609375 -24.46875 L 46.671875 -40.375 L 56.453125 -40.375 L 33.4375 -20.1875 Z M 56.453125 0" transform="translate(0.524478, 43.859966)"/></g></g></g><g fill="#fff" fill-opacity="1"><g><g><path d="M 12.046875 0 L 12.046875 -40.375 L 5.625 -40.375 L 5.625 0 Z M 12.046875 0" transform="translate(57.80692, 43.859966)"/></g></g></g><g fill="#fff" fill-opacity="1"><g><g><path d="M 39.5 0 C 43.039062 0 46.0625 -1.25 48.5625 -3.75 C 51.070312 -6.257812 52.328125 -9.289062 52.328125 -12.84375 L 52.328125 -27.5625 C 52.328125 -31.09375 51.070312 -34.109375 48.5625 -36.609375 C 46.0625 -39.117188 43.039062 -40.375 39.5 -40.375 L 17.0625 -40.375 C 13.507812 -40.375 10.476562 -39.117188 7.96875 -36.609375 C 5.46875 -34.109375 4.21875 -31.09375 4.21875 -27.5625 L 4.21875 -12.84375 C 4.21875 -9.289062 5.46875 -6.257812 7.96875 -3.75 C 10.476562 -1.25 13.507812 0 17.0625 0 Z M 39.5 -6.421875 L 17.0625 -6.421875 C 15.28125 -6.421875 13.765625 -7.039062 12.515625 -8.28125 C 11.265625 -9.53125 10.640625 -11.050781 10.640625 -12.84375 L 10.640625 -27.5625 C 10.640625 -29.320312 11.265625 -30.832031 12.515625 -32.09375 C 13.765625 -33.351562 15.28125 -33.984375 17.0625 -33.984375 L 39.5 -33.984375 C 41.257812 -33.984375 42.769531 -33.351562 44.03125 -32.09375 C 45.289062 -30.832031 45.921875 -29.320312 45.921875 -27.5625 L 45.921875 -12.84375 C 45.921875 -11.050781 45.289062 -9.53125 44.03125 -8.28125 C 42.769531 -7.039062 41.257812 -6.421875 39.5 -6.421875 Z M 39.5 -6.421875" transform="translate(75.484251, 43.859966)"/></g></g></g><g fill="#fff" fill-opacity="1"><g><g><path d="M 53.75 0 L 49.375 0 L 12.046875 -30.4375 L 12.046875 0 L 5.625 0 L 5.625 -40.375 L 9.96875 -40.375 L 47.328125 -9.96875 L 47.328125 -40.375 L 53.75 -40.375 Z M 53.75 0" transform="translate(132.034829, 43.859966)"/></g></g></g></svg>